<svg width="28" height="28" viewBox="0 0 28 28" fill="none" xmlns="http://www.w3.org/2000/svg">
<path d="M22.5543 17.9283C21.2621 17.4396 20.3977 16.2662 20.3001 14.8668C20.2045 13.5031 20.8728 12.292 22.0878 11.6266L23.098 11.0732L22.3766 10.175C21.1645 8.66547 19.43 7.76343 17.7369 7.76343C16.5635 7.76343 15.7493 8.07055 15.0955 8.31779C14.6339 8.4926 14.2698 8.62974 13.8699 8.62974C13.4141 8.62974 12.964 8.46942 12.4425 8.28399C11.7587 8.04061 10.9842 7.76439 9.9894 7.76439C8.06748 7.76439 6.12915 8.91175 4.93157 10.7564C3.1439 13.5079 3.63452 18.2258 6.09824 21.975C7.07465 23.4604 8.44317 25.1669 10.3815 25.1843C10.3941 25.1843 10.4066 25.1843 10.4192 25.1843C12.006 25.1843 12.3536 24.3383 13.8941 24.3286C15.5765 24.4078 15.7889 25.1911 17.3603 25.1804C19.2542 25.163 20.6198 23.47 21.7054 21.8156C22.3466 20.8431 22.5948 20.3341 23.0942 19.2292L23.5172 18.2924L22.5543 17.9283Z" fill="white"/>
<path d="M16.514 5.33762C17.1418 4.53215 17.6179 3.39542 17.445 2.23358C16.4194 2.30408 15.2218 2.95599 14.5216 3.80588C13.8861 4.57755 13.3617 5.72104 13.5655 6.83362C14.6839 6.86839 15.8418 6.20007 16.514 5.33762Z" fill="white"/>
</svg>
