<svg width="30" height="29" viewBox="0 0 30 29" fill="none" xmlns="http://www.w3.org/2000/svg">
<path d="M23.2056 12.3209V10.2843C23.2056 8.12367 22.3473 6.05156 20.8195 4.52378C19.2917 2.99599 17.2196 2.1377 15.059 2.1377C12.8984 2.1377 10.8263 2.99599 9.29851 4.52378C7.77073 6.05156 6.91243 8.12367 6.91243 10.2843L6.91243 12.3209C6.88742 12.9421 6.73462 13.5514 6.46357 14.1108C6.19252 14.6703 5.80905 15.1678 5.33708 15.5724C4.48902 16.2951 3.95785 17.3212 3.85746 18.4309C3.85746 20.9767 8.04481 22.5042 15.059 22.5042C22.0732 22.5042 26.2606 20.9767 26.2606 18.4309C26.1602 17.3212 25.629 16.2951 24.781 15.5724C24.309 15.1678 23.9255 14.6703 23.6545 14.1108C23.3834 13.5514 23.2306 12.9421 23.2056 12.3209Z" fill="#171A1F"/>
<path d="M12.1517 24.439C12.3458 25.0581 12.7325 25.5991 13.2554 25.9832C13.7783 26.3673 14.4102 26.5744 15.059 26.5744C15.7079 26.5744 16.3397 26.3673 16.8627 25.9832C17.3856 25.5991 17.7723 25.0581 17.9663 24.439C17.056 24.5062 16.0886 24.5408 15.059 24.5408C14.0295 24.5408 13.0621 24.5082 12.1517 24.439Z" fill="#171A1F"/>
</svg>
