<svg width="23" height="22" viewBox="0 0 23 22" fill="none" xmlns="http://www.w3.org/2000/svg">
<path d="M18.4797 8.72152L11.7969 15.4043C11.7349 15.4664 11.6612 15.5157 11.58 15.5493C11.4989 15.583 11.4119 15.6003 11.3241 15.6003C11.2363 15.6003 11.1493 15.583 11.0682 15.5493C10.9871 15.5157 10.9134 15.4664 10.8513 15.4043L4.16856 8.72152C4.075 8.62806 4.01126 8.50894 3.98543 8.37924C3.95961 8.24954 3.97284 8.11509 4.02346 7.99291C4.07409 7.87073 4.15982 7.76633 4.26982 7.6929C4.37981 7.61948 4.50912 7.58034 4.64137 7.58044L18.0069 7.58044C18.1391 7.58034 18.2684 7.61948 18.3784 7.6929C18.4884 7.76633 18.5741 7.87073 18.6248 7.99291C18.6754 8.11509 18.6886 8.24954 18.6628 8.37924C18.637 8.50894 18.5732 8.62806 18.4797 8.72152Z" fill="#C9617C"/>
</svg>
