<svg width="22" height="22" viewBox="0 0 22 22" fill="none" xmlns="http://www.w3.org/2000/svg">
<path d="M13.9546 4.32371L13.9546 17.5832C13.9547 17.7144 13.9158 17.8427 13.843 17.9518C13.7702 18.0609 13.6666 18.146 13.5454 18.1962C13.4242 18.2464 13.2908 18.2595 13.1621 18.2339C13.0334 18.2083 12.9153 18.1451 12.8225 18.0522L6.19279 11.4225C6.13115 11.3609 6.08225 11.2878 6.04889 11.2073C6.01552 11.1268 5.99835 11.0406 5.99835 10.9535C5.99835 10.8663 6.01552 10.7801 6.04889 10.6996C6.08225 10.6191 6.13115 10.546 6.19279 10.4844L12.8225 3.85466C12.9153 3.76184 13.0334 3.69861 13.1621 3.67299C13.2908 3.64736 13.4242 3.66049 13.5454 3.71071C13.6666 3.76093 13.7702 3.84599 13.843 3.95511C13.9158 4.06423 13.9547 4.19251 13.9546 4.32371Z" fill="#E12E2E"/>
</svg>
