<svg width="29" height="29" viewBox="0 0 29 29" fill="none" xmlns="http://www.w3.org/2000/svg">
<path d="M24.8203 5.24459C23.4731 3.89836 21.6839 3.15601 19.7796 3.15601C17.8754 3.15601 16.0862 3.89836 14.7399 5.24357C14.7226 5.26088 14.7053 5.27819 14.688 5.29652C14.6707 5.27819 14.6544 5.2619 14.6371 5.24459C13.2899 3.89836 11.5007 3.15601 9.59639 3.15601C7.69213 3.15601 5.90293 3.89836 4.55569 5.24459C3.20845 6.59081 2.46812 8.38001 2.46812 10.2843C2.46812 12.1885 3.20946 13.9777 4.55569 15.324L14.688 25.4563L24.8203 15.324C26.1666 13.9777 26.9079 12.1885 26.9079 10.2843C26.9079 8.38102 26.1666 6.59081 24.8203 5.24459Z" fill="#171A1F"/>
</svg>
