<svg width="30" height="30" viewBox="0 0 30 30" fill="none" xmlns="http://www.w3.org/2000/svg">
<path d="M26.2642 15.9405L3.86104 15.9405C3.25004 15.9405 2.84271 15.5331 2.84271 14.9221C2.84271 14.3111 3.25004 13.9038 3.86104 13.9038L26.2642 13.9038C26.8752 13.9038 27.2825 14.3111 27.2825 14.9221C27.2825 15.5331 26.8752 15.9405 26.2642 15.9405Z" fill="#171A1F"/>
<path d="M26.2642 8.81228L3.86104 8.81228C3.25004 8.81228 2.84271 8.40495 2.84271 7.79396C2.84271 7.18296 3.25004 6.77563 3.86104 6.77563L26.2642 6.77563C26.8752 6.77563 27.2825 7.18296 27.2825 7.79396C27.2825 8.40495 26.8752 8.81228 26.2642 8.81228Z" fill="#171A1F"/>
<path d="M26.2642 23.0686L3.86104 23.0686C3.25004 23.0686 2.84271 22.6613 2.84271 22.0503C2.84271 21.4393 3.25004 21.032 3.86104 21.032L26.2642 21.032C26.8752 21.032 27.2825 21.4393 27.2825 22.0503C27.2825 22.6613 26.8752 23.0686 26.2642 23.0686Z" fill="#171A1F"/>
</svg>
