<svg width="29" height="29" viewBox="0 0 29 29" fill="none" xmlns="http://www.w3.org/2000/svg">
<path d="M14.6802 2.13794C10.1995 2.13794 5.51526 5.60024 5.51526 11.3029C5.51526 16.7 13.6618 24.9484 13.9673 25.2539C14.171 25.4576 14.3747 25.5594 14.6802 25.5594C14.9857 25.5594 15.1893 25.4576 15.393 25.2539C15.6985 24.9484 23.8451 16.7 23.8451 11.3029C23.8451 5.60024 19.1608 2.13794 14.6802 2.13794ZM14.6802 14.3578C12.949 14.3578 11.6252 13.034 11.6252 11.3029C11.6252 9.5717 12.949 8.24788 14.6802 8.24788C16.4113 8.24788 17.7351 9.5717 17.7351 11.3029C17.7351 13.034 16.4113 14.3578 14.6802 14.3578Z" fill="#171A1F"/>
</svg>
