<svg width="23" height="24" viewBox="0 0 23 24" fill="none" xmlns="http://www.w3.org/2000/svg">
<path d="M8.08652 4.13656C7.96803 4.04769 7.82713 3.99358 7.67961 3.98027C7.53209 3.96697 7.38379 3.99501 7.25131 4.06125C7.11883 4.12749 7.00741 4.22931 6.92954 4.35531C6.85167 4.48131 6.81042 4.6265 6.81042 4.77461L6.81042 19.1307C6.81042 19.2789 6.85167 19.424 6.92954 19.55C7.00741 19.676 7.11883 19.7779 7.25131 19.8441C7.38379 19.9103 7.53209 19.9384 7.67961 19.9251C7.82713 19.9118 7.96803 19.8577 8.08652 19.7688L17.6573 12.5907C17.7563 12.5164 17.8367 12.4201 17.8921 12.3094C17.9475 12.1986 17.9763 12.0765 17.9763 11.9527C17.9763 11.8289 17.9475 11.7067 17.8921 11.596C17.8367 11.4852 17.7563 11.3889 17.6573 11.3146L8.08652 4.13656Z" fill="white"/>
</svg>
