<svg width="33" height="33" viewBox="0 0 33 33" fill="none" xmlns="http://www.w3.org/2000/svg">
<path d="M22.3719 15.4648C22.3719 16.5552 22.0485 17.6211 21.4427 18.5278C20.8369 19.4344 19.9759 20.1411 18.9684 20.5584C17.961 20.9756 16.8525 21.0848 15.783 20.8721C14.7135 20.6594 13.7312 20.1343 12.9601 19.3632C12.1891 18.5922 11.664 17.6098 11.4513 16.5404C11.2385 15.4709 11.3477 14.3623 11.765 13.3549C12.1823 12.3475 12.8889 11.4865 13.7956 10.8807C14.7022 10.2748 15.7682 9.9515 16.8586 9.9515C18.3208 9.9515 19.7231 10.5324 20.7571 11.5663C21.791 12.6002 22.3719 14.0026 22.3719 15.4648ZM28.8875 6.44306L28.8875 26.4913C28.8875 27.023 28.6763 27.533 28.3003 27.9089C27.9244 28.2849 27.4144 28.4961 26.8827 28.4961L6.83448 28.4961C6.30276 28.4961 5.79283 28.2849 5.41685 27.9089C5.04087 27.533 4.82965 27.023 4.82965 26.4913L4.82965 6.44306C4.82965 5.91134 5.04087 5.40141 5.41685 5.02543C5.79283 4.64945 6.30276 4.43823 6.83448 4.43823L26.8827 4.43823C27.4144 4.43823 27.9244 4.64945 28.3003 5.02543C28.6763 5.40141 28.8875 5.91134 28.8875 6.44306ZM26.8827 26.4913L26.8827 6.44306L6.83448 6.44306L6.83448 26.4913H7.29433C7.89102 24.6086 9.02676 22.9422 10.5609 21.6985C10.8182 21.4914 11.0839 21.2984 11.3579 21.1196C11.4491 21.06 11.5574 21.0318 11.6661 21.0393C11.7749 21.0468 11.8783 21.0895 11.9606 21.161C13.3218 22.3361 15.0602 22.9827 16.8586 22.9827C18.6569 22.9827 20.3954 22.3361 21.7566 21.161C21.8389 21.0895 21.9423 21.0468 22.0511 21.0393C22.1598 21.0318 22.268 21.06 22.3593 21.1196C22.6333 21.2992 22.899 21.4922 23.1563 21.6985C24.6904 22.9422 25.8262 24.6086 26.4229 26.4913H26.8827Z" fill="#F1CACB"/>
</svg>
